<?xml version="1.0" encoding="UTF-8" standalone="no"?>
<!DOCTYPE svg PUBLIC "-//W3C//DTD SVG 1.1//EN" "http://www.w3.org/Graphics/SVG/1.1/DTD/svg11.dtd">
<svg version="1.1" xmlns="http://www.w3.org/2000/svg" xmlns:xlink="http://www.w3.org/1999/xlink" preserveAspectRatio="xMidYMid meet" viewBox="0 0 640 640" width="640" height="640"><defs><path d="M426.26 325.42C437.22 331.17 444.38 327.27 441.77 315.36C439.16 303.44 420.88 281.25 415.82 277.77C410.76 274.28 396.98 286.29 397.93 292.37C398.88 298.45 415.3 319.67 426.26 325.42Z" id="d3sQk7emz"></path><path d="M102.1 262.08L148.12 271.1C177.35 231.88 189.6 203.91 184.89 187.2C177.81 162.13 138.03 145.93 119.81 170.82C107.67 187.42 101.77 217.84 102.1 262.08Z" id="avlXMVxxf"></path><path d="M315.78 543.05C325.73 554.34 335.25 553.29 337.05 538.99C338.86 524.69 327.26 491.99 323 485.86C318.73 479.74 298.62 486.73 297.27 493.85C295.92 500.97 305.84 531.76 315.78 543.05Z" id="h3IxB35Wiz"></path><path d="M310.22 100.19C308.77 109.85 312.81 118.47 319.23 119.44C325.65 120.4 332.05 113.34 333.5 103.69C334.95 94.03 330.91 85.41 324.49 84.45C318.06 83.48 311.67 90.54 310.22 100.19Z" id="lA1oEwUqB"></path><path d="M310.22 100.19C309.42 105.55 307.86 108.87 311.8 114.46C313.85 117.37 309.82 112.38 309.57 105.67C309.34 99.47 312.02 92.68 314.24 90.6C316.46 88.52 321.38 75.08 331.31 87C336.47 93.19 334.03 105.96 330.23 112.78C326.72 119.07 321.91 119.72 324.24 118.81C329.51 116.76 332.63 109.48 333.5 103.69C334.95 94.03 333.01 86.9 326.51 83.29C320.01 79.67 311.67 90.54 310.22 100.19Z" id="a7EBAS7sM"></path><path d="M167.71 247.91C153.64 218.12 124.83 181.2 95.53 178.39C66.22 175.58 36.42 206.87 50.49 236.67C59.88 256.53 96.18 275.57 159.39 293.77C174.32 283.06 177.1 267.78 167.71 247.91Z" id="a2DW208Rob"></path><path d="M121.43 455.71C145 508.57 263.47 539.56 308.1 523.33C352.72 507.1 387.62 422.38 412.86 337.62C438.1 252.86 423.33 220.95 409.05 184.29C394.76 147.62 345.24 105.48 279.52 106.19C213.81 106.9 162.62 135.71 146.19 187.14C129.76 238.57 155.24 244.76 149.05 311.9C142.86 379.05 97.86 402.86 121.43 455.71Z" id="a9hvw8lHI"></path><path d="M258.57 227.99C284.41 227.99 300.48 202.35 300.48 177.73C300.48 153.11 279.52 129.52 258.57 129.52C237.62 129.52 216.67 153.11 216.67 177.73C216.67 202.35 232.73 227.99 258.57 227.99Z" id="buWAI4RhZ"></path><path d="M383.96 207.59C401.12 202.86 416.67 193.33 412.36 159.42C408.05 125.51 381.26 115.14 364.27 121.32C347.28 127.5 336.53 140.61 337.24 163.27C337.96 185.93 366.8 212.31 383.96 207.59Z" id="d285gUhl50"></path><path d="M270.59 153.43C270.59 161.62 263.49 168.27 254.73 168.27C245.98 168.27 238.88 161.62 238.88 153.43C238.88 145.25 245.98 138.6 254.73 138.6C263.49 138.6 270.59 145.25 270.59 153.43Z" id="adBRGRk43"></path><path d="M225.68 106.93C229.46 115.93 227.66 125.28 221.67 127.8C215.68 130.31 207.75 125.04 203.98 116.04C200.2 107.03 201.99 97.68 207.98 95.17C213.97 92.66 221.9 97.93 225.68 106.93Z" id="dYGoO1288"></path><path d="M225.68 106.93C227.77 111.93 230.1 114.76 227.66 121.15C226.38 124.47 229.07 118.64 227.66 112.08C226.36 106.01 222.09 100.09 219.42 98.62C216.76 97.15 208.69 85.33 202 99.32C198.52 106.59 204.02 118.37 209.38 124.05C214.32 129.29 219.15 128.73 216.67 128.42C211.05 127.72 206.24 121.44 203.98 116.04C200.2 107.03 200.32 99.64 205.73 94.54C211.15 89.44 221.9 97.93 225.68 106.93Z" id="hSXztRLX"></path><path d="M215.51 109.22L220.06 118.32" id="f2XIuAaAHD"></path><path d="M211.06 112.53L216.38 112.86" id="c1vYMxog2N"></path><path d="M400.08 132.99C400.08 140.42 393.85 146.45 386.18 146.45C378.51 146.45 372.28 140.42 372.28 132.99C372.28 125.56 378.51 119.52 386.18 119.52C393.85 119.52 400.08 125.56 400.08 132.99Z" id="c4Mb6v4kgi"></path><path d="M347.2 225.12C357.33 228.03 373.02 231.85 369.82 239.57C366.61 247.3 347.14 254.13 334.39 256.02C321.65 257.9 306.17 254.53 302.53 247.24C298.89 239.96 310.38 232.13 319.84 226.89C329.3 221.65 337.07 222.21 347.2 225.12Z" id="a15C84CutM"></path><path d="M347.14 221.9C347.14 228.21 338.82 233.33 328.57 233.33C318.32 233.33 310 228.21 310 221.9C310 215.6 318.32 210.48 328.57 210.48C338.82 210.48 347.14 215.6 347.14 221.9Z" id="e2tO74C7D8"></path><path d="M354.54 250.84C360.95 247.1 359.46 268.7 357.92 269.9C357.19 270.47 352.47 276.17 342.94 277.25C333.41 278.32 326.68 276.31 323.74 274.73C318.12 271.71 323.34 255.78 323.65 256.29C323.96 256.79 348.13 254.57 354.54 250.84Z" id="a3UlMe0aw"></path><path d="M341.89 254.55L344.07 265.31L345.23 275.61" id="bKmhGgXt1"></path><path d="M156.84 527.76C156.84 542.81 164.68 548.32 175.49 538.78C186.29 529.25 199.22 497.04 200.07 489.63C200.47 486.11 196.23 482.44 191.06 480.04C185.35 477.39 178.49 476.28 175.49 478.61C169.77 483.06 156.84 512.72 156.84 527.76Z" id="aZvpJEppj"></path><path d="M156.84 527.76C156.84 542.81 164.68 548.32 175.49 538.78C186.29 529.25 197.7 497.8 200.07 489.63C202.43 481.46 181.84 551.97 163.03 543.51C144.23 535.04 177.8 473.03 175.49 478.61C173.18 484.2 156.84 512.72 156.84 527.76Z" id="af0SXwiL7"></path><path d="M134.34 228.23C137.8 222.76 142.11 220.11 147.26 220.28C152.41 220.45 158.4 223.45 165.24 229.27L186.59 238.26L202.32 252.86L220.29 261.85L240.52 267.47L259.62 275.33L275.73 285.34L295.96 290.29L315.83 297.56C328.72 299.83 339.77 300.47 348.97 299.47C358.17 298.47 367.72 294.1 377.6 286.36L391.86 277.14L406.25 265.08L418.05 258.48C428.63 255.24 433.12 260.48 431.53 274.21C429.94 287.94 429.19 294.68 429.28 294.43L427.03 314.66L421.42 334.88L417.03 355.11L411.3 374.21L404.56 393.31L396.7 413.54L389.96 432.64L384.34 453.99C382.84 460.73 380.59 467.09 377.6 473.09C374.6 479.08 370.86 484.7 366.36 489.94L354 505.67L338.27 518.03C333.06 524.02 327.55 528.52 321.74 531.51C315.94 534.51 309.84 536.01 303.44 536.01C296.7 538.07 289.96 539.19 283.21 539.38C273.1 539.66 273.1 538.82 262.99 537.13C252.88 535.45 252.88 534.04 242.77 532.64C232.65 531.23 232.65 531.79 222.54 531.51C212.43 531.23 211.59 534.32 202.32 531.51C196.14 529.64 190.52 525.9 185.46 520.28L170.86 510.78L156.84 502.3L133.78 487.69C127.78 484.32 122.54 480.2 118.05 475.33C113.55 470.46 109.81 464.85 106.81 458.48C102.32 452.3 99.32 445.93 97.82 439.38C96.32 432.82 96.32 424.65 97.82 414.85L102.09 398.93C104.62 393.5 107.58 387.88 110.99 382.08C116.11 373.37 115.94 373.65 119.67 364.1C122.16 357.73 124.24 350.99 125.91 343.87L131.53 323.65L133.78 303.42L134.9 282.08L136.02 261.85L132.65 241.63C132.65 240.35 132.65 238.64 132.65 236.5C132.65 234.35 133.22 231.6 134.34 228.23Z" id="c2sBnnRpms"></path><path d="M250.03 271.82C261.94 275.32 272.46 282.37 287.09 285.88C310.86 291.58 318.6 301.79 348.56 297.56C378.51 293.34 413.9 254.93 409.63 263.95C405.37 272.97 384.2 336.3 325.1 329.85C265.99 323.39 192.64 247.96 188.44 241.69C184.24 235.42 212.83 260.9 250.03 271.82Z" id="b4TDVX3ohz"></path><path d="M128.84 339.91C126.3 349.8 257.91 419.55 325.3 436.6C344.61 441.49 356.03 435.9 367.5 433.07C382.7 429.33 392.65 421.21 397.36 408.71C402.04 397.46 406.35 386.15 410.3 374.78C414.25 363.41 417.52 351.79 420.1 339.91C408.6 384.03 379.28 401.25 332.15 391.57C285.02 381.89 219.02 351.04 134.14 299.04C132.3 319.7 130.53 333.32 128.84 339.91Z" id="a1JJM8AyYE"></path><path d="M99.89 424.07C102.59 429.03 147.32 460.64 200.91 486.98C254.49 513.32 316.93 534.39 324.34 529.33C334.21 522.59 343.94 514.77 353.53 505.87C353.45 505.3 355 502.91 358.19 498.72C362.98 492.42 368.29 486.95 369 485.59C369.71 484.22 349.03 496.84 315.01 486.98C246.98 467.28 113.82 378.87 109.05 385C104.28 391.12 94.48 414.16 99.89 424.07Z" id="a2uyfKD96"></path><path d="M184.44 311.83C184.44 324.21 191.21 328.74 200.55 320.9C209.89 313.05 221.06 286.56 221.8 280.46C222.53 274.35 205.5 267.73 200.55 271.39C195.61 275.05 184.44 299.46 184.44 311.83Z" id="d2GIo0bbF"></path><path d="M184.44 311.83C184.44 324.21 191.21 328.74 200.55 320.9C209.89 313.05 219.55 286.56 221.8 280.46C224.04 274.35 206.1 331.23 189.77 323.98C173.43 316.74 202.85 266.59 200.55 271.39C198.26 276.19 184.44 299.46 184.44 311.83Z" id="fa7L5KtJ4"></path><path d="M248.75 118.16C250.09 118.05 250.98 117.57 251.4 116.72C251.83 115.88 248.36 97.96 241 62.97L201.51 55.05C197.75 49.96 194.53 47.53 191.85 47.75C187.84 48.08 180.56 49.89 182.11 58.37C183.67 66.86 187.95 69.83 193.63 69.81C197.41 69.8 200.22 67.06 202.03 61.58L237.95 66.25C242.38 101.1 244.91 118.78 245.53 119.3C246.16 119.82 247.23 119.44 248.75 118.16Z" id="c3eoaHZ7g"></path><path d="M293.01 116.66C291.67 116.54 290.79 116.07 290.36 115.22C289.94 114.38 293.41 98.74 300.76 68.31C306.37 64.57 314.48 59.64 325.1 53.54C341.02 44.39 345.9 45.92 349.91 46.25C353.93 46.57 358.18 46.74 356.62 55.23C355.07 63.72 352.82 63.48 347.14 63.46C343.36 63.45 339.68 60.7 336.1 55.23L303.81 70.81C299.38 101.62 296.86 117.28 296.23 117.8C295.61 118.32 294.54 117.93 293.01 116.66Z" id="b12zVvhbYP"></path></defs><g><g><g><use xlink:href="#d3sQk7emz" opacity="1" fill="#f3ded0" fill-opacity="1"></use><g><use xlink:href="#d3sQk7emz" opacity="1" fill-opacity="0" stroke="#343434" stroke-width="2" stroke-opacity="1"></use></g></g><g><use xlink:href="#avlXMVxxf" opacity="1" fill="#f9fbfb" fill-opacity="1"></use><g><use xlink:href="#avlXMVxxf" opacity="1" fill-opacity="0" stroke="#343434" stroke-width="2" stroke-opacity="1"></use></g></g><g><use xlink:href="#h3IxB35Wiz" opacity="1" fill="#f3ded0" fill-opacity="1"></use><g><use xlink:href="#h3IxB35Wiz" opacity="1" fill-opacity="0" stroke="#343434" stroke-width="2" stroke-opacity="1"></use></g></g><g><g><use xlink:href="#lA1oEwUqB" opacity="1" fill="#ddfafc" fill-opacity="1"></use></g><g><use xlink:href="#a7EBAS7sM" opacity="1" fill="#ddfafc" fill-opacity="1"></use><g><use xlink:href="#a7EBAS7sM" opacity="1" fill-opacity="0" stroke="#343434" stroke-width="2" stroke-opacity="1"></use></g></g></g><g><use xlink:href="#a2DW208Rob" opacity="1" fill="#f9fbfb" fill-opacity="1"></use><g><use xlink:href="#a2DW208Rob" opacity="1" fill-opacity="0" stroke="#343434" stroke-width="2" stroke-opacity="1"></use></g></g><g><use xlink:href="#a9hvw8lHI" opacity="1" fill="#ddfafc" fill-opacity="1"></use><g><use xlink:href="#a9hvw8lHI" opacity="1" fill-opacity="0" stroke="#343434" stroke-width="3" stroke-opacity="1"></use></g></g><g><use xlink:href="#buWAI4RhZ" opacity="1" fill="#ffffff" fill-opacity="1"></use><g><use xlink:href="#buWAI4RhZ" opacity="1" fill-opacity="0" stroke="#343434" stroke-width="2" stroke-opacity="1"></use></g></g><g><use xlink:href="#d285gUhl50" opacity="1" fill="#ffffff" fill-opacity="1"></use><g><use xlink:href="#d285gUhl50" opacity="1" fill-opacity="0" stroke="#000000" stroke-width="2" stroke-opacity="1"></use></g></g><g><use xlink:href="#adBRGRk43" opacity="1" fill="#343434" fill-opacity="1"></use></g><g><g><use xlink:href="#dYGoO1288" opacity="1" fill="#ddfafc" fill-opacity="1"></use></g><g><use xlink:href="#hSXztRLX" opacity="1" fill="#ddfafc" fill-opacity="1"></use><g><use xlink:href="#hSXztRLX" opacity="1" fill-opacity="0" stroke="#343434" stroke-width="2" stroke-opacity="1"></use></g></g><g><g><use xlink:href="#f2XIuAaAHD" opacity="1" fill-opacity="0" stroke="#343434" stroke-width="2" stroke-opacity="1"></use></g></g><g><g><use xlink:href="#c1vYMxog2N" opacity="1" fill-opacity="0" stroke="#343434" stroke-width="2" stroke-opacity="1"></use></g></g></g><g><use xlink:href="#c4Mb6v4kgi" opacity="1" fill="#343434" fill-opacity="1"></use></g><g><use xlink:href="#a15C84CutM" opacity="1" fill="#f3ded0" fill-opacity="1"></use><g><use xlink:href="#a15C84CutM" opacity="1" fill-opacity="0" stroke="#343434" stroke-width="2" stroke-opacity="1"></use></g></g><g><use xlink:href="#e2tO74C7D8" opacity="1" fill="#343434" fill-opacity="1"></use></g><g><use xlink:href="#a3UlMe0aw" opacity="1" fill="#ffffff" fill-opacity="1"></use><g><use xlink:href="#a3UlMe0aw" opacity="1" fill-opacity="0" stroke="#343434" stroke-width="2" stroke-opacity="1"></use></g></g><g><g><use xlink:href="#bKmhGgXt1" opacity="1" fill-opacity="0" stroke="#343434" stroke-width="2" stroke-opacity="1"></use></g></g><g><g><use xlink:href="#aZvpJEppj" opacity="1" fill="#f3ded0" fill-opacity="1"></use></g><g><g><use xlink:href="#af0SXwiL7" opacity="1" fill-opacity="0" stroke="#343434" stroke-width="2" stroke-opacity="1"></use></g></g></g><g><g><use xlink:href="#c2sBnnRpms" opacity="1" fill="#feff8f" fill-opacity="1"></use><g><use xlink:href="#c2sBnnRpms" opacity="1" fill-opacity="0" stroke="#343434" stroke-width="2" stroke-opacity="1"></use></g></g><g><use xlink:href="#b4TDVX3ohz" opacity="1" fill="#343434" fill-opacity="1"></use><g><use xlink:href="#b4TDVX3ohz" opacity="1" fill-opacity="0" stroke="#343434" stroke-width="2" stroke-opacity="1"></use></g></g><g><use xlink:href="#a1JJM8AyYE" opacity="1" fill="#343434" fill-opacity="1"></use><g><use xlink:href="#a1JJM8AyYE" opacity="1" fill-opacity="0" stroke="#343434" stroke-width="2" stroke-opacity="1"></use></g></g><g><use xlink:href="#a2uyfKD96" opacity="1" fill="#343434" fill-opacity="1"></use><g><use xlink:href="#a2uyfKD96" opacity="1" fill-opacity="0" stroke="#343434" stroke-width="2" stroke-opacity="1"></use></g></g></g><g><g><use xlink:href="#d2GIo0bbF" opacity="1" fill="#f3ded0" fill-opacity="1"></use></g><g><use xlink:href="#fa7L5KtJ4" opacity="1" fill="#f3ded0" fill-opacity="1"></use><g><use xlink:href="#fa7L5KtJ4" opacity="1" fill-opacity="0" stroke="#343434" stroke-width="2" stroke-opacity="1"></use></g></g></g><g><use xlink:href="#c3eoaHZ7g" opacity="1" fill="#343434" fill-opacity="1"></use><g><use xlink:href="#c3eoaHZ7g" opacity="1" fill-opacity="0" stroke="#343434" stroke-width="2" stroke-opacity="1"></use></g></g><g><use xlink:href="#b12zVvhbYP" opacity="1" fill="#343434" fill-opacity="1"></use><g><use xlink:href="#b12zVvhbYP" opacity="1" fill-opacity="0" stroke="#343434" stroke-width="2" stroke-opacity="1"></use></g></g></g></g></svg>