<?xml version="1.0" encoding="UTF-8" standalone="no"?>
<!DOCTYPE svg PUBLIC "-//W3C//DTD SVG 1.1//EN" "http://www.w3.org/Graphics/SVG/1.1/DTD/svg11.dtd">
<svg version="1.1" xmlns="http://www.w3.org/2000/svg" xmlns:xlink="http://www.w3.org/1999/xlink" preserveAspectRatio="xMidYMid meet" viewBox="0 0 640 640" width="640" height="640"><defs><path d="M315.78 543.05C325.73 554.34 335.25 553.29 337.05 538.99C338.86 524.69 327.26 491.99 323 485.86C318.73 479.74 298.62 486.73 297.27 493.85C295.92 500.97 305.84 531.76 315.78 543.05Z" id="adsvYovEU"></path><path d="M426.26 325.42C437.22 331.17 444.38 327.27 441.77 315.36C439.16 303.44 420.88 281.25 415.82 277.77C410.76 274.28 396.98 286.29 397.93 292.37C398.88 298.45 415.3 319.67 426.26 325.42Z" id="bRnd7tT3"></path><path d="M294.55 98.74C294.37 108.5 299.5 116.52 305.99 116.64C312.49 116.76 317.9 108.93 318.08 99.17C318.26 89.41 313.13 81.38 306.64 81.27C300.15 81.15 294.73 88.98 294.55 98.74Z" id="b4M7emO9H1"></path><path d="M294.55 98.74C294.45 104.16 293.34 107.65 297.97 112.68C300.38 115.29 295.74 110.87 294.62 104.25C293.58 98.14 295.35 91.05 297.29 88.7C299.22 86.35 302.34 72.38 313.73 82.9C319.66 88.38 318.91 101.35 316.03 108.61C313.37 115.31 308.69 116.58 310.88 115.37C315.83 112.64 317.98 105.03 318.08 99.17C318.26 89.41 315.41 82.59 308.5 79.85C301.58 77.12 294.73 88.98 294.55 98.74Z" id="b33cKoPRLx"></path><path d="M121.43 455.71C145 508.57 238.1 534.05 308.1 523.33C378.1 512.62 387.62 422.38 412.86 337.62C438.1 252.86 423.33 220.95 409.05 184.29C394.76 147.62 345.24 105.48 279.52 106.19C213.81 106.9 162.62 135.71 146.19 187.14C129.76 238.57 155.24 244.76 149.05 311.9C142.86 379.05 97.86 402.86 121.43 455.71Z" id="cN0V0WbS"></path><path d="M258.57 220.95C284.41 220.95 300.48 197.14 300.48 174.29C300.48 151.43 279.52 129.52 258.57 129.52C237.62 129.52 216.67 151.43 216.67 174.29C216.67 197.14 232.73 220.95 258.57 220.95Z" id="apXs58zf"></path><path d="M377.6 202.89C400.54 198.97 416.67 195.45 412.36 157.44C408.05 119.44 381.26 115.36 364.27 121.24C347.28 127.11 337.84 142.21 338.55 163.74C339.27 185.27 354.66 206.8 377.6 202.89Z" id="e1Qg01kws"></path><path d="M276.67 159.52C276.67 170.56 267.7 179.52 256.67 179.52C245.63 179.52 236.67 170.56 236.67 159.52C236.67 148.49 245.63 139.52 256.67 139.52C267.7 139.52 276.67 148.49 276.67 159.52Z" id="fuGPNVxmS"></path><path d="M397.88 146.67C397.88 156.13 390.2 163.81 380.74 163.81C371.28 163.81 363.6 156.13 363.6 146.67C363.6 137.21 371.28 129.52 380.74 129.52C390.2 129.52 397.88 137.21 397.88 146.67Z" id="bXKFg77kk"></path><path d="M345.46 224C355.85 225.78 371.86 227.86 369.52 235.89C367.19 243.91 348.58 252.84 336.11 256.11C323.65 259.38 307.9 257.72 303.48 250.88C299.07 244.04 309.63 235 318.46 228.76C327.29 222.51 335.08 222.21 345.46 224Z" id="b6wiP0sIyw"></path><path d="M347.14 221.9C347.14 228.21 338.82 233.33 328.57 233.33C318.32 233.33 310 228.21 310 221.9C310 215.6 318.32 210.48 328.57 210.48C338.82 210.48 347.14 215.6 347.14 221.9Z" id="b11ebmExk"></path><path d="M356.15 248.54C362.02 244 363.35 265.62 361.99 267C361.34 267.66 357.39 273.93 348.08 276.23C338.77 278.54 331.85 277.42 328.72 276.23C322.76 273.97 325.86 257.5 326.24 257.96C326.61 258.42 350.28 253.08 356.15 248.54Z" id="amAld6Qgc"></path><path d="M342.16 254.71L345.18 265.27L347.14 275.44" id="c5zVXmK3Jz"></path><path d="M156.84 527.76C156.84 542.81 164.68 548.32 175.49 538.78C186.29 529.25 199.22 497.04 200.07 489.63C200.47 486.11 196.23 482.44 191.06 480.04C185.35 477.39 178.49 476.28 175.49 478.61C169.77 483.06 156.84 512.72 156.84 527.76Z" id="dMytLYx1L"></path><path d="M156.84 527.76C156.84 542.81 164.68 548.32 175.49 538.78C186.29 529.25 197.7 497.8 200.07 489.63C202.43 481.46 181.84 551.97 163.03 543.51C144.23 535.04 177.8 473.03 175.49 478.61C173.18 484.2 156.84 512.72 156.84 527.76Z" id="effWcaje1"></path><path d="M225.68 106.93C229.46 115.93 227.66 125.28 221.67 127.8C215.68 130.31 207.75 125.04 203.98 116.04C200.2 107.03 201.99 97.68 207.98 95.17C213.97 92.66 221.9 97.93 225.68 106.93Z" id="akQofmWoc"></path><path d="M225.68 106.93C227.77 111.93 230.1 114.76 227.66 121.15C226.38 124.47 229.07 118.64 227.66 112.08C226.36 106.01 222.09 100.09 219.42 98.62C216.76 97.15 208.69 85.33 202 99.32C198.52 106.59 204.02 118.37 209.38 124.05C214.32 129.29 219.15 128.73 216.67 128.42C211.05 127.72 206.24 121.44 203.98 116.04C200.2 107.03 200.32 99.64 205.73 94.54C211.15 89.44 221.9 97.93 225.68 106.93Z" id="b393f6cfj8"></path><path d="M215.51 109.22L220.06 118.32" id="a1h2AGrDT"></path><path d="M211.06 112.53L216.38 112.86" id="a1oz5q2BJp"></path><path d="M184.44 311.83C184.44 324.21 191.21 328.74 200.55 320.9C209.89 313.05 221.06 286.56 221.8 280.46C222.53 274.35 205.5 267.73 200.55 271.39C195.61 275.05 184.44 299.46 184.44 311.83Z" id="b2loZCzx86"></path><path d="M184.44 311.83C184.44 324.21 191.21 328.74 200.55 320.9C209.89 313.05 219.55 286.56 221.8 280.46C224.04 274.35 206.1 331.23 189.77 323.98C173.43 316.74 202.85 266.59 200.55 271.39C198.26 276.19 184.44 299.46 184.44 311.83Z" id="a1SKPQwPQB"></path></defs><g><g><g><use xlink:href="#adsvYovEU" opacity="1" fill="#f3ded0" fill-opacity="1"></use><g><use xlink:href="#adsvYovEU" opacity="1" fill-opacity="0" stroke="#343434" stroke-width="2" stroke-opacity="1"></use></g></g><g><use xlink:href="#bRnd7tT3" opacity="1" fill="#f3ded0" fill-opacity="1"></use><g><use xlink:href="#bRnd7tT3" opacity="1" fill-opacity="0" stroke="#343434" stroke-width="2" stroke-opacity="1"></use></g></g><g><g><use xlink:href="#b4M7emO9H1" opacity="1" fill="#ddfafc" fill-opacity="1"></use></g><g><use xlink:href="#b33cKoPRLx" opacity="1" fill="#ddfafc" fill-opacity="1"></use><g><use xlink:href="#b33cKoPRLx" opacity="1" fill-opacity="0" stroke="#343434" stroke-width="2" stroke-opacity="1"></use></g></g></g><g><use xlink:href="#cN0V0WbS" opacity="1" fill="#ddfafc" fill-opacity="1"></use><g><use xlink:href="#cN0V0WbS" opacity="1" fill-opacity="0" stroke="#343434" stroke-width="3" stroke-opacity="1"></use></g></g><g><use xlink:href="#apXs58zf" opacity="1" fill="#ffffff" fill-opacity="1"></use><g><use xlink:href="#apXs58zf" opacity="1" fill-opacity="0" stroke="#343434" stroke-width="2" stroke-opacity="1"></use></g></g><g><use xlink:href="#e1Qg01kws" opacity="1" fill="#ffffff" fill-opacity="1"></use><g><use xlink:href="#e1Qg01kws" opacity="1" fill-opacity="0" stroke="#343434" stroke-width="2" stroke-opacity="1"></use></g></g><g><use xlink:href="#fuGPNVxmS" opacity="1" fill="#343434" fill-opacity="1"></use></g><g><use xlink:href="#bXKFg77kk" opacity="1" fill="#343434" fill-opacity="1"></use></g><g><use xlink:href="#b6wiP0sIyw" opacity="1" fill="#f3ded0" fill-opacity="1"></use><g><use xlink:href="#b6wiP0sIyw" opacity="1" fill-opacity="0" stroke="#343434" stroke-width="2" stroke-opacity="1"></use></g></g><g><use xlink:href="#b11ebmExk" opacity="1" fill="#343434" fill-opacity="1"></use></g><g><use xlink:href="#amAld6Qgc" opacity="1" fill="#ffffff" fill-opacity="1"></use><g><use xlink:href="#amAld6Qgc" opacity="1" fill-opacity="0" stroke="#343434" stroke-width="2" stroke-opacity="1"></use></g></g><g><g><use xlink:href="#c5zVXmK3Jz" opacity="1" fill-opacity="0" stroke="#343434" stroke-width="2" stroke-opacity="1"></use></g></g><g><g><use xlink:href="#dMytLYx1L" opacity="1" fill="#f3ded0" fill-opacity="1"></use></g><g><g><use xlink:href="#effWcaje1" opacity="1" fill-opacity="0" stroke="#343434" stroke-width="2" stroke-opacity="1"></use></g></g></g><g><g><use xlink:href="#akQofmWoc" opacity="1" fill="#ddfafc" fill-opacity="1"></use></g><g><use xlink:href="#b393f6cfj8" opacity="1" fill="#ddfafc" fill-opacity="1"></use><g><use xlink:href="#b393f6cfj8" opacity="1" fill-opacity="0" stroke="#343434" stroke-width="2" stroke-opacity="1"></use></g></g><g><g><use xlink:href="#a1h2AGrDT" opacity="1" fill-opacity="0" stroke="#343434" stroke-width="2" stroke-opacity="1"></use></g></g><g><g><use xlink:href="#a1oz5q2BJp" opacity="1" fill-opacity="0" stroke="#343434" stroke-width="2" stroke-opacity="1"></use></g></g></g><g><g><use xlink:href="#b2loZCzx86" opacity="1" fill="#f3ded0" fill-opacity="1"></use></g><g><use xlink:href="#a1SKPQwPQB" opacity="1" fill="#f3ded0" fill-opacity="1"></use><g><use xlink:href="#a1SKPQwPQB" opacity="1" fill-opacity="0" stroke="#343434" stroke-width="2" stroke-opacity="1"></use></g></g></g></g></g></svg>