<?xml version="1.0" encoding="UTF-8" standalone="no"?>
<!DOCTYPE svg PUBLIC "-//W3C//DTD SVG 1.1//EN" "http://www.w3.org/Graphics/SVG/1.1/DTD/svg11.dtd">
<svg version="1.1" xmlns="http://www.w3.org/2000/svg" xmlns:xlink="http://www.w3.org/1999/xlink" preserveAspectRatio="xMidYMid meet" viewBox="0 0 640 640" width="640" height="640"><defs><path d="M320.34 85.75C323.88 87.88 327.87 89.2 331.77 89.82C335.67 90.44 339.51 90.35 343.31 89.38C347.12 88.41 351.62 86.85 354.83 84.12C358.05 81.39 359.19 77.99 359.87 74.86C360.55 71.73 361.09 68.19 363.18 63.93C365.27 59.67 367.15 55.36 366.98 52.21C366.82 49.06 366.07 46.17 364.7 43.69C363.32 41.21 361.44 39.36 359.19 38.06C356.93 36.76 354.3 36.02 351.4 35.77C348.49 35.52 345.31 35.77 341.96 36.5C338.6 37.22 335.08 38.43 331.49 40.19C327.9 41.94 324.58 44.08 321.67 46.57C318.76 49.05 316.26 51.89 314.4 54.99C312.54 58.09 311.34 61.46 311.04 64.92C310.74 68.38 310.67 73.28 312.23 76.97C313.78 80.67 316.8 83.63 320.34 85.75Z" id="a2RVBDpkM"></path><path d="M341.83 34.46C345.52 33.7 349.02 33.46 352.23 33.73C355.44 34 358.35 34.8 360.85 36.2C363.35 37.59 365.45 39.59 367 42.28C368.56 44.96 369.45 48.09 369.69 51.51C369.94 54.92 368.61 59.29 366.26 63.92C363.9 68.56 363.25 72.45 362.54 75.84C361.82 79.22 359.56 82.33 355.46 84.92C354.99 85.21 353.95 83.96 354.31 83.63C357.5 80.78 358.28 77.38 359.36 74.57C360.04 71.52 360.58 68.09 362.63 63.94C364.69 59.79 366.53 55.58 366.39 52.52C366.24 49.45 365.53 46.64 364.19 44.22C362.86 41.8 361.03 40 358.83 38.74C356.63 37.48 354.06 36.75 351.22 36.5C348.38 36.26 345.27 36.5 341.99 37.21C340.34 37.57 338.65 38.04 336.94 38.64C335.23 39.24 333.48 39.96 331.72 40.81C328.21 42.52 324.96 44.61 322.11 47.03C319.26 49.45 316.81 52.22 315 55.24C313.18 58.26 312 61.54 311.7 64.9C311.41 68.27 311.32 73.03 312.82 76.62C314.05 79.57 316.21 82.08 318.92 83.96C319.43 84.31 317.38 86.46 315.84 85.52C312.97 83.76 311.01 80.93 309.77 77.94C308.08 73.89 307.85 68.76 308.14 64.97C308.44 61.19 309.72 57.5 311.73 54.14C313.73 50.78 316.44 47.73 319.61 45.08C322.77 42.43 326.4 40.16 330.33 38.32C331.31 37.86 332.29 37.44 333.27 37.05C336.19 35.88 339.06 35.03 341.83 34.46Z" id="dA3E0aU6N"></path><path d="M430.26 344.95C432.91 346.58 435.85 347.06 439.09 346.97C442.32 346.87 445.85 346.23 449.59 345.46C453.32 344.68 457.23 343.73 461.14 342.75C465.05 341.76 468.65 340.57 471.82 339.19C474.99 337.81 477.74 336.25 479.88 334.49C482.02 332.72 483.53 330.73 484.15 328.39C484.76 326.05 484.48 323.35 483.06 320.25C481.63 317.15 479.77 315.16 477.6 314.09C475.43 313.02 472.97 312.88 470.29 313.36C467.61 313.85 464.71 314.95 461.52 316.18C458.33 317.41 454.83 318.74 450.88 319.69C446.93 320.64 442.61 320.85 438.5 321.05C434.39 321.24 430.52 321.45 427.51 322.23C424.51 323.01 422.36 324.36 421.53 326.6C420.69 328.84 421.14 331.95 423.2 336.23C425.25 340.52 427.61 343.32 430.26 344.95Z" id="a2UcMOiifb"></path><path d="M435.42 319.34C439.74 318.64 444.47 318.03 448.97 316.74C453.47 315.46 457.47 313.88 461.15 312.48C464.83 311.09 468.22 309.92 471.41 309.48C474.6 309.04 477.59 309.34 480.26 310.6C482.92 311.87 485.25 314.09 487.05 317.37C488.84 320.65 489.35 323.73 488.8 326.56C488.26 329.39 486.67 331.97 484.35 334.33C482.03 336.7 478.98 338.86 475.43 340.79C471.89 342.72 467.84 344.39 463.39 345.73C458.95 347.07 454.65 348.23 450.63 349.14C446.61 350.06 442.89 350.75 439.47 350.78C438.17 350.8 436.92 350.71 435.7 350.5C433.25 350.08 431.09 345.19 433.48 346.14C435.69 347.02 438.06 347.24 440.61 347.06C443.71 346.84 447.08 346.08 450.64 345.19C454.2 344.3 457.92 343.23 461.64 342.13C465.35 341.03 468.76 339.74 471.76 338.29C474.75 336.84 477.33 335.24 479.32 333.45C481.3 331.67 482.68 329.7 483.18 327.42C483.68 325.15 483.3 322.57 481.81 319.65C480.32 316.72 478.44 314.88 476.32 313.94C474.19 313 471.82 312.96 469.27 313.53C466.71 314.1 463.97 315.28 460.95 316.59C457.93 317.9 454.62 319.31 450.86 320.38C447.11 321.44 442.96 321.82 439.02 322.17C435.08 322.52 431.37 322.88 428.51 323.75C428.15 323.86 427.81 323.97 427.48 324.1C426.63 324.42 425.86 324.78 425.23 325.24C424.51 325.78 422.1 323.17 424.36 322.21C424.73 322.06 425.09 321.88 425.48 321.72C428.2 320.63 431.64 319.95 435.42 319.34Z" id="d1w58kOzD"></path><path d="M355.27 56.1C352.18 56.94 348.64 60.37 346.69 62.99C345.62 64.42 344.41 65.81 343.8 67.51C343.59 68.08 343.4 68.66 343.56 69.46C344.27 69.33 344.8 68.42 345.16 67.73C346.58 65 348.58 62.57 351.16 60.77C353.32 59.27 353.6 58.19 355.78 57.27C357.16 56.68 357.96 57.01 359.14 56.64C358.62 55.82 357.31 55.54 355.27 56.1Z" id="hU8d5mHgT"></path><path d="M125.53 328.79L144.72 397.01L191.7 468.92L191.7 484.16L138.61 503.2L128.94 499.4L121.4 494.09C117.75 476.92 115 463.77 113.17 454.63C111.35 445.49 109.95 438.23 108.98 432.85L104.51 397.01L104.51 344.65L114.01 314.55L122.85 304.67" id="c4aweoKgQa"></path><path d="M205.95 466.15L483.79 453.77L489.76 481.39L406.9 529.01L391.83 533.77L359.14 538.53C286.45 538.88 232.58 537.29 197.53 533.77C162.48 530.25 146.24 524.8 148.81 517.42L148.81 491.51L205.95 466.15Z" id="b3fPlHDkLo"></path><path d="M348.35 64.05C351.17 64.98 353.87 66.25 356.65 67.3C357.56 67.64 357.82 66.7 357.05 66.21C356.28 65.72 355.47 65.39 354.63 65.08C353.84 64.78 352.98 64.67 352.22 64.33C350.75 63.66 349.96 62.77 348.53 62.02C348.04 61.76 347.38 62.8 347.07 62.46C346.47 61.8 347.6 63.8 348.35 64.05Z" id="g3q2w0TuN"></path><path d="M482.83 472.46C487.35 482.2 494.11 487.23 499.42 491.11C504.74 495 509.04 497.29 512.65 497.29C516.26 497.29 519.15 495.04 521.42 489.87C523.68 484.7 523.62 479.67 521.84 474.49C520.07 469.3 516.54 464 512.12 457.69C507.7 451.37 502.64 443.88 494.82 436.4C487 428.92 476.89 420.48 462.74 413.56C448.59 406.63 432.5 402.8 418.61 399.92C404.71 397.04 392.94 395.1 383.8 393.83C374.65 392.56 367.96 392.06 363.35 392.39C358.74 392.73 356.19 393.89 355.8 395.87C355.41 397.84 357.73 400.14 362.81 402.59C367.89 405.03 375.84 407.6 386.71 410.23C397.59 412.86 411.59 415.43 426.14 419.42C440.7 423.4 455.82 428.78 465.97 438.56C476.11 448.34 478.32 462.73 482.83 472.46Z" id="e4bkHVF1ks"></path><path d="M484.07 463.14C487.44 473 492.2 479.62 497.1 483.86C502 488.1 506.3 490.69 509.69 491.35C513.07 492.02 515.67 490.65 517.55 486.42C519.42 482.19 518.95 477.92 516.86 473.36C514.76 468.81 511.03 463.97 506.8 457.89C502.57 451.81 497.9 444.47 490.8 437.45C483.71 430.43 474.45 423.1 462.63 417C450.81 410.9 437.56 407.26 425.78 404.6C414 401.94 403.68 400.2 395.55 398.98C387.42 397.76 381.36 397.12 377.26 397.1C373.16 397.09 370.97 397.71 370.8 399.01C370.62 400.3 373.02 401.92 377.86 403.72C382.71 405.51 390.08 407.46 399.67 409.66C409.25 411.86 421.14 414.25 433.33 417.92C445.51 421.6 457.78 426.73 467.21 434.49C476.64 442.24 480.7 453.28 484.07 463.14Z" id="a1g5zR8th2"></path><path d="M429.57 345.48C390.71 350.15 315.44 376.59 313.49 374.76C348.64 358.41 399.56 346.75 433.64 336.94C445.57 333.51 454.29 326.6 459.35 314.64C459.35 314.64 454.64 325.29 454.29 325.56C453.93 325.82 445.98 331.92 445.98 331.92C445.98 331.92 438.73 335.63 438.2 335.9C437.67 336.17 433.07 339.52 433.07 339.52C433.07 339.52 435.37 341.2 436.26 341.47C437.14 341.73 439.44 343.24 441.2 343.41C442.97 343.59 448.81 344.12 453.93 344.92C459.06 345.71 470.02 348.36 472.58 349.6C475.14 350.84 480.71 353.93 480.98 354.37C481.24 354.81 493.47 373.58 493.47 373.58C484.92 354.43 457.96 342.06 429.57 345.48Z" id="c6IiFefjn"></path><path d="M150.81 490.14C183.5 472.79 199.67 465.67 199.32 468.77C198.78 473.42 145.12 344.84 145.01 348.77C144.89 352.7 143.06 396.85 142.24 399.97C141.43 403.09 153 466.79 150.81 468.77C148.62 470.75 152.25 505.23 148.53 505.64C144.81 506.04 133.97 507.22 131.56 505.64C129.16 504.05 121.34 496.86 120.04 493.81C118.74 490.76 108.09 435.68 107.66 431.67C107.49 430.07 100.92 389.86 101.94 366.98C102.63 351.73 103.41 341.97 104.3 337.69C104.93 334.43 105.55 331.86 106.17 329.98C106.91 327.73 107.41 325.86 107.66 324.38C108.35 320.32 110.62 317.08 113.07 310.55C115.52 304.02 123.43 303.64 124.08 302.6C125.41 300.49 137.81 301.54 136.03 303.38C134.37 305.09 118.19 307.09 117.38 309.51C116.4 312.47 112.95 315.75 112.42 319.38C111.88 323.01 111.62 321.94 110.34 324.82C109.5 326.72 109.6 328.04 108.79 330.64C108.6 331.26 107.07 335.1 106.76 336.44C105.76 340.71 103.87 354.36 104.3 359.34C105.23 370.09 104.1 366.2 104.3 369.52C104.5 372.84 103.41 376.25 104.3 378.77C104.73 379.97 107.13 417.99 109.92 431.12C112.72 444.25 111.84 438.47 114.33 454.6C115.07 459.42 117.84 471.26 122.62 490.14C126.69 495.62 130.39 499.15 133.72 500.71C138.4 502.91 142.83 499.82 144.11 499.72C145.56 499.6 146.39 492.74 146.6 479.12C146.6 479.12 145.52 458.49 145.52 458.49C140.66 418.13 138.35 397.21 138.61 395.73C139.06 393.15 138.67 352.06 138.61 348.77C138.55 345.48 144.56 335.88 145.01 332C145.46 328.12 182.96 424.02 184.14 420.24C185.33 416.47 157.44 313.04 157.73 310.06C157.76 309.69 157.79 309.33 157.8 308.97C157.82 308.07 157.79 307.22 157.6 306.46C157.38 305.58 199.3 448.17 199.32 450.62C199.32 450.78 219.39 468.36 205.15 471.15C181.91 475.71 148.55 495.92 148.54 496.18C148.52 498.12 149.28 496.11 150.81 490.14Z" id="d1U6gN1Fum"></path><path d="M302.53 69.71C348.16 70.91 399.28 75.79 432.77 112.96C467.8 151.84 487.02 206.55 478.08 256.68C474.12 278.83 466.36 309.45 459.15 323.24C451.56 337.76 438.03 336.72 437.79 338.81C436.76 347.6 468.35 338.85 486.77 357.55C501.77 372.78 506.47 400.98 506.83 421.17C506.92 426.04 506.8 431.07 506.43 436.15C490.97 474.05 455.56 497.03 394.63 513.2C377.18 517.83 359.45 520.49 342 521.74C305.79 520.26 269.69 515.2 235.19 503.33C200.36 491.34 175.3 459.7 155.43 424.52C124 368.85 117.3 300.62 126.3 236.3C133.83 182.49 138.73 143.52 182 111.75C216.5 86.41 256.5 69.64 298.47 69.66C299.82 69.66 301.17 69.68 302.53 69.71Z" id="bmL2GPoh4"></path><path d="M429.36 117.92C460.63 152.83 475.98 200.23 472.54 245.54C470.56 271.49 468 295.56 456.18 318.63C448.28 334.04 428.8 336.7 428.71 341.51C428.65 344.75 442.38 343.96 467.6 351.47C487.05 357.27 490.09 367.96 497.43 388.64C501.21 399.31 501.31 411.47 501.55 422.86C501.65 427.79 501.38 432.76 500.78 437.71C483.97 471.65 449.25 492.85 392 508.04C370.77 513.67 349.1 516.41 328.05 517.21C303.07 515.53 278.27 511.71 254.14 505.03C215.17 494.25 184.33 462.97 161.86 424.23C130.28 369.79 123.26 303.06 130.53 239.46C136.71 185.42 142.3 146.78 185.98 115.75C219.55 91.9 257.66 75.22 298.19 75.5C344.05 75.81 395.74 80.38 429.36 117.92Z" id="a1Tmt4J4"></path><path d="M367.04 488.55C369.69 489.65 371.65 491.59 373.33 494.07C375.01 496.54 376.44 499.54 377.88 502.76C379.33 505.97 380.74 509.42 382.11 512.88C383.49 516.35 384.55 519.69 385.23 522.81C385.92 525.94 386.24 528.84 386.08 531.4C385.91 533.96 385.24 536.17 383.82 537.9C382.4 539.63 380.22 540.88 377.13 541.5C374.03 542.11 371.53 541.79 369.55 540.74C367.58 539.7 366.14 537.93 365.05 535.66C363.96 533.39 363.22 530.62 362.41 527.56C361.61 524.5 360.7 521.16 359.27 517.69C357.84 514.21 355.66 510.86 353.58 507.67C351.5 504.49 349.57 501.48 348.52 498.8C347.48 496.12 347.33 493.78 348.55 491.94C349.77 490.1 352.35 488.76 356.67 487.98C360.99 487.19 364.38 487.45 367.04 488.55Z" id="anIYm3ujL"></path><path d="M350.02 506.94C351.98 510.48 354.24 514.27 355.89 518.27C357.53 522.27 358.67 526.08 359.76 529.55C360.85 533.03 361.94 536.16 363.45 538.73C364.96 541.3 366.88 543.3 369.33 544.51C371.77 545.72 374.72 546.14 378.13 545.57C381.54 545 384.07 543.6 385.81 541.59C387.55 539.58 388.52 536.95 388.91 533.91C389.3 530.87 389.13 527.42 388.5 523.74C387.87 520.06 386.77 516.16 385.2 512.16C383.63 508.17 382.01 504.38 380.37 500.94C378.74 497.49 377.11 494.39 375.18 491.89C374.45 490.94 373.67 490.08 372.82 489.31C371.11 487.77 366.33 489 368.38 490.2C370.29 491.3 370.91 492.76 372.2 494.72C373.77 497.11 374.9 500.19 376.16 503.14C377.43 506.1 379.76 508.89 381.01 511.97C382.25 515.04 383.2 518.03 383.8 520.88C384.4 523.74 384.69 526.45 384.53 528.86C384.37 531.27 383.75 533.37 382.45 534.99C381.14 536.6 379.15 537.72 376.4 538.26C373.64 538.8 371.47 538.5 369.84 537.51C368.2 536.52 368.08 533.74 367.3 531.64C366.53 529.54 365.31 526.96 364.62 524.26C363.93 521.56 362.77 519.83 361.1 516.85C359.43 513.87 356.87 510.95 354.52 507.93C352.17 504.9 350.27 501.97 349.27 499.4C349.14 499.08 349.03 498.76 348.93 498.45C348.68 497.65 348.5 496.89 348.48 496.16C348.45 495.33 345.18 495.08 345.78 497.26C345.88 497.62 345.95 497.99 346.06 498.36C346.83 500.95 348.3 503.85 350.02 506.94Z" id="cRBpqa5ad"></path><path d="M176.51 127.3C176.66 132.06 175.67 136.67 173.98 140.69C172.3 144.71 169.9 148.19 166.57 151.01C163.25 153.84 158.88 156.9 153.99 157.89C149.11 158.88 144.69 157.39 140.78 155.52C136.86 153.65 132.48 151.16 126.42 149.63C120.36 148.09 114.41 146.41 110.87 143.54C107.33 140.67 104.4 137.41 102.28 133.84C100.15 130.26 99.01 126.69 98.72 123.21C98.43 119.73 98.99 116.35 100.31 113.18C101.62 110.01 103.7 107.06 106.5 104.49C109.3 101.92 112.83 99.74 117.11 98.13C121.39 96.52 126.03 95.64 130.84 95.46C135.64 95.27 140.61 95.78 145.44 97C150.27 98.21 154.95 100.12 159.08 102.75C163.21 105.39 168.76 109.25 171.87 113.46C174.99 117.66 176.36 122.54 176.51 127.3Z" id="b10JTVjsjI"></path><path d="M104.39 102.93C101.36 105.8 99.11 109.09 97.67 112.6C96.22 116.12 95.59 119.85 95.86 123.69C96.14 127.52 97.33 131.44 99.58 135.36C101.83 139.28 104.94 142.85 108.72 145.98C112.5 149.12 118.17 151.34 124.76 152.83C131.35 154.31 136.15 156.92 140.35 158.89C144.52 160.84 149.23 160.99 154.48 159.05C155.08 158.83 154.33 156.95 153.76 157.04C148.75 157.91 144.54 156.03 140.74 154.79C136.92 152.97 132.64 150.54 126.72 149.05C120.8 147.57 114.98 145.93 111.52 143.14C108.07 140.34 105.2 137.17 103.12 133.68C101.04 130.2 99.93 126.72 99.65 123.33C99.37 119.93 99.91 116.63 101.2 113.53C102.49 110.43 104.52 107.55 107.26 105.04C108.63 103.78 110.19 102.62 111.91 101.57C113.64 100.52 115.55 99.59 117.64 98.8C121.83 97.22 126.36 96.36 131.06 96.17C135.75 95.99 140.61 96.49 145.32 97.67C150.03 98.85 154.59 100.71 158.63 103.28C162.66 105.85 168.07 109.62 171.12 113.71C173.62 117.08 175.03 120.87 175.42 124.71C175.49 125.43 179.06 125.1 178.97 123.02C178.82 119.13 176.96 115.34 174.46 112C171.07 107.48 165.5 103.27 161.03 100.42C156.56 97.57 151.5 95.52 146.3 94.24C141.09 92.96 135.75 92.44 130.58 92.69C125.42 92.94 120.42 93.96 115.82 95.78C114.67 96.24 113.57 96.74 112.52 97.27C109.37 98.86 106.66 100.78 104.39 102.93Z" id="a2jeFg6sZa"></path><path d="M130.94 122.65C135.84 121.85 143.02 124.42 147.44 126.87C149.86 128.21 152.46 129.39 154.41 131.39C155.07 132.06 155.7 132.76 155.99 133.99C154.91 134.26 153.57 133.32 152.62 132.58C148.88 129.64 144.51 127.48 139.73 126.6C135.71 125.86 134.64 124.52 130.97 124.62C128.65 124.67 127.73 125.64 125.84 125.87C126.04 124.39 127.72 123.17 130.94 122.65Z" id="a1aYupdb7D"></path><path d="M145.78 129.42C142.41 132.54 139.4 136.06 136.16 139.31C135.1 140.37 134.13 139.21 134.9 138.04C135.68 136.84 136.6 135.86 137.59 134.88C138.52 133.97 139.65 133.26 140.5 132.29C142.15 130.41 142.7 128.64 144.23 126.68C144.76 126 146.34 127.05 146.57 126.36C147 125.06 146.68 128.59 145.78 129.42Z" id="c1Pn8uJh8D"></path><path d="M323.68 45.28C317.88 49.71 312.8 55.83 311.53 63.21C311.23 65.46 311.15 67.78 311.2 70.03C311.75 70.75 312.97 70.32 313.8 70.51C317.4 70.68 321.01 70.88 324.61 71.12C321.52 64.06 322.2 52.88 333.03 39.75C329.71 41.24 326.57 43.12 323.68 45.28Z" id="a1kQADJFsl"></path><path d="M440.6 328.07L436.48 323.45L438.48 329.32L440.6 328.07Z" id="bCoW7ksxb"></path><path d="M435.85 329.38C435.54 329.57 433.23 328.2 431.79 327.57C430.35 326.95 428.73 327.39 429.1 326.57C429.48 325.76 430.35 324.95 430.35 324.95C431.23 325.01 436.17 329.2 435.85 329.38Z" id="aESVAJzqs"></path><path d="M425.1 329.95C424.48 329.38 421.54 326.64 421.54 326.64C421.79 326.94 423.04 328.43 425.29 331.13C425.19 330.5 425.13 330.11 425.1 329.95Z" id="c1MeRiiEVR"></path><path d="M423.6 336.57L418.79 335.82L423.6 336.88L423.6 336.57Z" id="b3Smlzpny"></path><path d="M199.55 253.68C204.26 263.63 210.91 272.81 218.97 280.76C227.03 288.72 236.5 295.44 246.9 300.39C257.29 305.35 268.61 308.52 280.38 309.32C292.16 310.12 303.29 308.45 313.35 304.68C323.42 300.91 332.42 295.04 339.92 287.52C347.41 280 353.4 270.82 357.42 260.5C361.45 250.18 363.51 238.71 363.17 226.65C362.83 214.6 360.13 203.11 355.54 192.74C350.95 182.36 344.48 173.11 336.6 165.45C328.72 157.8 319.43 151.74 309.17 147.65C298.9 143.56 287.67 141.45 275.89 141.61C264.1 141.77 252.89 144.19 242.69 148.34C232.5 152.49 223.33 158.37 215.66 165.58C208 172.79 201.85 181.32 197.7 190.81C193.55 200.31 191.4 210.77 191.73 221.88C192.06 233 194.84 243.73 199.55 253.68Z" id="a22BQoEMEN"></path><path d="M203.94 249.71C208.07 259.35 214.08 268.37 221.53 276.23C228.97 284.1 237.86 290.79 247.7 295.71C257.54 300.63 268.34 303.77 279.59 304.56C290.84 305.35 301.48 303.72 311.08 300.1C320.69 296.47 329.27 290.85 336.42 283.7C343.56 276.55 349.27 267.87 353.14 258.15C357.01 248.44 359.04 237.69 358.81 226.45C358.57 215.2 356.1 204.54 351.86 194.95C347.62 185.36 341.6 176.83 334.26 169.76C326.91 162.7 318.25 157.09 308.67 153.25C299.09 149.41 288.61 147.33 277.6 147.28C266.6 147.22 256.11 149.18 246.56 152.73C237 156.27 228.37 161.41 221.11 167.81C213.85 174.2 207.96 181.87 203.88 190.54C199.8 199.21 197.53 208.89 197.53 219.34C197.53 229.8 199.8 240.07 203.94 249.71Z" id="d15V7mgEMt"></path><path d="M285.94 188.8C304.76 187.78 320.92 203.75 322.05 224.48C323.17 245.2 308.82 262.82 290 263.84C271.18 264.86 255.01 248.89 253.89 228.17C252.77 207.44 267.11 189.82 285.94 188.8Z" id="alzqUz004"></path><path d="M427.96 181.24C426.54 189.39 426.2 198.05 427.11 206.55C428.02 215.06 430.12 223.36 432.94 230.68C435.75 238 439.25 244.35 443.58 249.36C447.9 254.37 452.73 257.63 458.11 259.42C463.49 261.21 470.44 263.83 476.41 262.78C482.37 261.73 488.61 259.3 494.59 255.49C500.57 251.69 506.3 246.49 511.21 239.93C516.11 233.36 519.74 226.04 521.94 218.41C524.14 210.78 524.91 202.84 524.23 195.05C523.54 187.26 520.1 176.98 516.58 169.9C513.07 162.83 508.19 156.32 502.15 150.83C496.11 145.34 489.51 141.39 482.92 138.98C476.32 136.56 469.74 135.68 463.7 136.35C457.67 137.02 452.12 139.23 447.32 142.96C442.52 146.68 438.47 151.92 435.13 158.69C431.79 165.45 429.39 173.1 427.96 181.24Z" id="eaTMJ1hOM"></path><path d="M430.17 181.23C428.58 188.88 428.08 197.09 428.98 205.2C429.87 213.31 432.09 221.26 435.06 228.27C438.04 235.28 441.69 241.35 445.98 246.11C450.27 250.88 454.89 253.93 459.91 255.59C464.93 257.25 471.79 259.89 477.16 258.84C482.54 257.79 488.15 255.45 493.54 251.83C498.93 248.21 504.08 243.31 508.5 237.14C512.91 230.97 516.16 224.11 518.11 216.99C520.07 209.86 520.73 202.46 520.05 195.19C519.38 187.93 516.07 178.12 512.81 171.52C509.56 164.92 505.06 158.85 499.53 153.72C494 148.59 487.97 144.89 481.97 142.61C475.98 140.33 470.04 139.48 464.52 140.04C459 140.59 453.9 142.56 449.41 145.92C444.93 149.28 441.04 154.04 437.69 160.25C434.33 166.47 431.76 173.58 430.17 181.23Z" id="b1ti5vmBwt"></path><path d="M513.94 166.8C523.14 179 525.91 204.61 520.12 224.01C514.34 243.4 502.19 249.24 492.99 237.05C483.79 224.85 481.02 199.24 486.81 179.84C492.59 160.45 504.74 154.61 513.94 166.8Z" id="bgZDIrjlu"></path><path d="M416.04 246.09C413.58 246.31 411.23 246.86 409.1 247.67C406.97 248.48 405.06 249.54 403.52 250.76C402.42 251.64 401.51 252.61 400.83 253.63C400.3 253.76 399.76 253.88 399.24 254.03C395.17 255.16 391.34 256.74 388.14 258.67C384.94 260.61 382.32 262.84 380.78 265.35C379.21 267.93 378.68 270.83 378.86 273.13C379.07 275.83 380.74 278.27 383.1 280.47C385.46 282.67 388.73 284.62 392.51 286.22C394.01 286.85 395.61 287.41 397.24 287.92C397.18 288.33 396.89 290.41 396.35 294.15C395.35 299.22 394.79 302.03 394.68 302.6C394.38 304.12 394.78 305.46 395.52 306.44C396.25 307.41 397.39 307.97 398.72 308C399.02 308.01 400.5 308.05 403.17 308.11C408.45 307.99 411.39 307.92 411.97 307.9C413.66 307.87 415.23 307.21 416.38 306.2C417.53 305.19 418.21 303.82 418.35 302.33C418.4 301.77 418.66 298.97 419.12 293.94C419.31 291.39 419.41 289.98 419.43 289.69C423.11 289.13 426.43 288.2 429.37 287.08C432.71 285.81 435.52 284.29 437.73 282.61C439.95 280.94 441.58 279.08 442.62 277C443.65 274.92 444.08 272.63 443.7 270.15C443.33 267.68 442.17 265.26 440.38 263.05C438.88 261.2 436.95 259.5 434.71 258.01C434.73 257.43 434.69 256.82 434.58 256.2C434.29 254.7 433.62 253.25 432.62 251.95C431.61 250.65 430.26 249.48 428.63 248.54C427 247.59 425.09 246.87 422.96 246.44C421.37 246.11 419.66 245.96 417.87 245.99C417.27 246 416.66 246.04 416.04 246.09Z" id="fHmago0wE"></path><path d="M411.1 276.24C408.45 276.18 406.98 276.15 406.69 276.14C405.28 276.11 404.03 276.78 403.12 277.76C402.2 278.74 401.75 280.11 401.54 281.59C401.46 282.16 401.06 284.96 400.34 290.01C399.34 295.08 398.78 297.9 398.67 298.46C398.37 299.99 398.77 301.33 399.5 302.3C400.24 303.28 401.37 303.84 402.71 303.87C403.01 303.88 404.49 303.91 407.16 303.98C412.44 303.85 415.37 303.78 415.96 303.77C417.65 303.73 419.22 303.07 420.37 302.07C421.52 301.06 422.2 299.69 422.33 298.19C422.39 297.64 422.64 294.84 423.1 289.81C423.48 284.79 423.69 281.99 423.73 281.44C423.84 279.95 423.17 278.61 422.24 277.66C421.3 276.7 420.03 276.13 418.67 276.14C418.67 276.14 416.14 276.17 411.1 276.24Z" id="b4Ro7kC3P"></path><path d="M411.11 278.77C409.35 278.7 408.37 278.66 408.17 278.65C407.05 278.6 406.02 279.17 405.24 279.97C404.47 280.78 404.02 281.9 403.8 283.11C403.72 283.57 403.33 285.87 402.61 290C401.72 294.14 401.22 296.44 401.12 296.9C400.86 298.13 401.12 299.24 401.7 300.04C402.28 300.84 403.21 301.27 404.32 301.31C404.52 301.32 405.52 301.36 407.34 301.43C411.53 301.34 413.86 301.29 414.33 301.28C415.66 301.25 416.92 300.72 417.86 299.9C418.81 299.08 419.42 297.96 419.57 296.73C419.63 296.27 419.92 293.99 420.44 289.87C420.89 285.77 421.14 283.48 421.19 283.03C421.32 281.81 420.85 280.71 420.13 279.93C419.41 279.15 418.4 278.67 417.29 278.69C417.29 278.69 415.23 278.71 411.11 278.77Z" id="a3ZdEGGmSH"></path><path d="M387.09 276.34C389.45 278.54 392.71 280.49 396.49 282.08C400.27 283.68 404.54 284.91 408.86 285.56C413.18 286.22 417.55 286.29 421.86 285.77C426.16 285.26 430.01 284.22 433.35 282.95C436.7 281.67 439.51 280.16 441.72 278.48C443.93 276.8 445.57 274.94 446.6 272.87C447.64 270.79 448.06 268.49 447.69 266.02C447.31 263.54 446.15 261.13 444.36 258.91C442.57 256.69 440.16 254.67 437.33 252.99C434.5 251.31 431.26 249.97 427.67 249.09C424.09 248.21 420.17 247.8 415.87 247.94C411.58 248.08 407.29 248.76 403.23 249.89C399.16 251.02 395.32 252.61 392.13 254.54C388.93 256.47 386.31 258.7 384.77 261.22C383.2 263.8 382.67 266.7 382.85 269C383.06 271.7 384.72 274.14 387.09 276.34Z" id="bCBIcHdRx"></path><path d="M395.49 274.33C397.41 276.13 400.01 277.72 402.96 278.98C405.91 280.25 409.2 281.19 412.55 281.68C415.9 282.18 419.33 282.22 422.69 281.81C426.05 281.4 429.06 280.59 431.66 279.55C434.27 278.51 436.47 277.24 438.2 275.83C439.92 274.42 441.18 272.86 441.92 271.16C442.66 269.46 442.89 267.61 442.5 265.66C442.12 263.7 441.15 261.82 439.72 260.11C438.29 258.4 436.4 256.85 434.18 255.57C431.96 254.29 429.41 253.28 426.59 252.62C423.77 251.97 420.69 251.67 417.36 251.81C414.03 251.94 410.74 252.5 407.63 253.4C404.52 254.3 401.6 255.54 399.14 257.04C396.67 258.54 394.67 260.31 393.39 262.23C392.12 264.16 391.57 266.25 391.94 268.39C392.31 270.54 393.56 272.54 395.49 274.33Z" id="cbOJDcxiU"></path><path d="M407.19 259.36C408.81 260.51 410.87 261.45 413.1 262.17C415.34 262.89 417.73 263.4 420.08 263.67C422.43 263.94 424.73 263.97 426.88 263.73C429.03 263.49 430.85 263.01 432.39 262.33C433.92 261.66 435.18 260.8 436.17 259.78C437.16 258.76 437.89 257.59 438.31 256.3C438.73 255 438.85 253.57 438.56 252.07C438.28 250.56 437.61 249.12 436.6 247.82C435.59 246.51 434.25 245.35 432.62 244.4C430.99 243.46 429.07 242.73 426.95 242.3C424.83 241.87 422.49 241.74 420.03 241.96C417.57 242.18 415.21 242.73 413.08 243.54C410.95 244.34 409.05 245.4 407.51 246.63C405.97 247.86 404.79 249.25 404.13 250.73C403.47 252.21 403.33 253.77 403.87 255.31C404.41 256.84 405.57 258.21 407.19 259.36Z" id="b16h8ONu4l"></path><path d="M232.91 341.38C230.57 343.43 229.24 346.1 228.38 349.21C227.52 352.33 227.08 355.9 226.72 359.69C226.36 363.49 226.11 367.51 225.9 371.53C225.69 375.56 225.77 379.35 226.15 382.78C226.54 386.22 227.21 389.31 228.26 391.87C229.32 394.44 230.78 396.47 232.83 397.75C234.89 399.03 237.55 399.55 240.93 399.11C244.32 398.66 246.77 397.47 248.43 395.71C250.09 393.96 250.95 391.65 251.28 388.94C251.61 386.24 251.41 383.15 251.17 379.73C250.94 376.32 250.7 372.58 250.96 368.53C251.22 364.48 252.29 360.28 253.32 356.3C254.34 352.32 255.28 348.56 255.43 345.46C255.57 342.35 254.91 339.91 253.02 338.44C251.13 336.98 248.02 336.5 243.32 337.2C238.62 337.89 235.25 339.33 232.91 341.38Z" id="bhXqEJFaG"></path><path d="M254.71 353.66C254.1 357.99 253.29 362.7 253.19 367.38C253.09 372.05 253.42 376.34 253.67 380.27C253.92 384.19 254.03 387.78 253.51 390.96C252.99 394.14 251.82 396.91 249.82 399.08C247.83 401.26 245.02 402.82 241.36 403.57C237.69 404.32 234.6 403.89 232.06 402.54C229.52 401.18 227.52 398.91 225.94 395.99C224.37 393.07 223.2 389.52 222.41 385.57C221.61 381.61 221.21 377.24 221.24 372.6C221.27 367.97 221.43 363.51 221.75 359.4C222.06 355.29 222.5 351.53 223.47 348.26C223.84 347.01 224.29 345.84 224.85 344.74C225.97 342.52 231.28 341.9 229.67 343.9C228.18 345.76 227.27 347.96 226.69 350.44C225.99 353.47 225.71 356.92 225.52 360.58C225.32 364.24 225.24 368.11 225.2 371.99C225.16 375.86 225.37 379.5 225.88 382.79C226.38 386.08 227.15 389.02 228.27 391.44C229.39 393.86 230.87 395.76 232.89 396.91C234.92 398.06 237.49 398.46 240.73 397.89C243.96 397.33 246.27 396.09 247.8 394.33C249.33 392.58 250.06 390.33 250.27 387.72C250.48 385.11 250.16 382.14 249.8 378.87C249.44 375.6 249.07 372.02 249.16 368.11C249.25 364.21 250.11 360.13 250.94 356.27C251.77 352.4 252.52 348.75 252.54 345.76C252.54 345.39 252.53 345.02 252.51 344.67C252.45 343.77 252.33 342.93 252.07 342.19C251.78 341.33 254.98 339.81 255.23 342.25C255.27 342.65 255.33 343.05 255.37 343.47C255.6 346.38 255.24 349.87 254.71 353.66Z" id="aJ1OrWK9V"></path><path d="M188.57 531.01L188.57 545.22L190.5 600.54C192.1 614.82 192.1 624.35 190.5 629.11C190.36 629.54 190.06 629.74 189.62 629.71C184.08 629.33 178.96 626.68 175.45 622.38C175.04 621.88 174.01 620.63 172.38 618.63L172.38 531.01L188.57 531.01Z" id="a3TzVyMCJR"></path><path d="M370.79 538.58L370.79 629.71L363.21 629.71L355.76 620.19L351.32 538.58L370.79 538.58Z" id="a3IkGhQaQP"></path><path d="M468.81 493.52L465 606.86L474.42 610.67L483.79 606.86L485.95 484.95L468.81 493.52Z" id="a3julZH77N"></path><path d="M357.42 538.58L357.42 618.27C347.61 624.43 342.96 624.43 343.47 618.27C343.98 612.1 343 585.54 340.54 538.58L357.42 538.58Z" id="c14QojcGV1"></path><path d="M469.35 494.1C467.12 551.79 465.73 587.84 465.17 602.26C465.07 604.95 466.65 607.43 469.13 608.47C469.55 608.65 468.05 608.02 468.82 608.34C469.92 608.8 471.12 607.94 471.04 606.75C470.81 603.43 470.25 595.14 469.35 581.86C471.66 569.94 473.35 554.98 474.42 536.97C475.5 518.96 479.34 501.62 485.95 484.95L469.35 492.63L469.35 494.1Z" id="c18bbZpCzO"></path><path d="M301.82 69.28C301.82 77.62 303.37 74.78 306.47 80.59C307.52 82.54 330.12 36.61 336.19 59.69C342.26 82.77 322.21 94.43 306.47 104.74C295.98 111.62 275.4 116.99 244.73 120.83L172.38 126.53C145.62 119.71 135.14 111.27 140.91 101.19C144.5 94.94 153.46 95.42 167.8 102.64C172.77 105.15 178.21 100.18 176.16 94.99C173.64 88.64 172.38 80.07 172.38 69.28C172.38 36.72 201.38 10.29 237.1 10.29C272.82 10.29 301.82 36.72 301.82 69.28Z" id="f1yakGYcYD"></path><path d="M173.3 104.54C194.3 104.38 219.39 101.82 248.56 96.87C292.31 89.45 306.28 84.04 306.63 83.18C308.71 78 308.95 83.7 302.46 75.49C295.98 67.29 177.05 87.38 176.53 94.12C176.18 98.61 175.1 102.08 173.3 104.54Z" id="bkSPw4r5I"></path><path d="M497.72 308.11C492.79 308.97 490.76 311.63 491.61 316.09C492.9 322.77 499.22 323.41 501.57 327.17C503.14 329.68 500.76 331 494.43 331.13C487.96 323.21 484.42 317.71 483.79 314.64C482.84 310.03 486.25 303.06 491.61 301.43C495.19 300.35 497.22 302.57 497.72 308.11Z" id="c2MBhC49L"></path><path d="M543.26 289.74L544.2 338.54C527.17 339.22 516.06 339.83 510.87 340.38C505.67 340.93 500.45 325.12 495.2 292.96L543.26 289.74Z" id="b1IiowZgp1"></path><path d="M520.76 304.13C527.31 303.75 533.91 300.63 540.56 294.77L499.28 298.54C507.04 302.65 514.2 304.51 520.76 304.13Z" id="arnCgQcBO"></path></defs><g><g><g><use xlink:href="#a2RVBDpkM" opacity="1" fill="#96d6ff" fill-opacity="1"></use><g><use xlink:href="#a2RVBDpkM" opacity="1" fill-opacity="0" stroke="#000000" stroke-width="10" stroke-opacity="0"></use></g></g><g><use xlink:href="#dA3E0aU6N" opacity="1" fill="#394655" fill-opacity="1"></use><g><use xlink:href="#dA3E0aU6N" opacity="1" fill-opacity="0" stroke="#000000" stroke-width="10" stroke-opacity="0"></use></g></g><g><g><use xlink:href="#a2UcMOiifb" opacity="1" fill="#e1d6b9" fill-opacity="1"></use><g><use xlink:href="#a2UcMOiifb" opacity="1" fill-opacity="0" stroke="#000000" stroke-width="10" stroke-opacity="0"></use></g></g><g><use xlink:href="#d1w58kOzD" opacity="1" fill="#394655" fill-opacity="1"></use><g><use xlink:href="#d1w58kOzD" opacity="1" fill-opacity="0" stroke="#000000" stroke-width="10" stroke-opacity="0"></use></g></g></g><g><use xlink:href="#hU8d5mHgT" opacity="1" fill="#394655" fill-opacity="1"></use><g><use xlink:href="#hU8d5mHgT" opacity="1" fill-opacity="0" stroke="#000000" stroke-width="10" stroke-opacity="0"></use></g></g><g><use xlink:href="#c4aweoKgQa" opacity="1" fill="#dda03a" fill-opacity="1"></use><g><use xlink:href="#c4aweoKgQa" opacity="1" fill-opacity="0" stroke="#394655" stroke-width="1" stroke-opacity="1"></use></g></g><g><use xlink:href="#b3fPlHDkLo" opacity="1" fill="#bd7d12" fill-opacity="1"></use><g><use xlink:href="#b3fPlHDkLo" opacity="1" fill-opacity="0" stroke="#394655" stroke-width="4" stroke-opacity="1"></use></g></g><g><use xlink:href="#g3q2w0TuN" opacity="1" fill="#394655" fill-opacity="1"></use><g><use xlink:href="#g3q2w0TuN" opacity="1" fill-opacity="0" stroke="#000000" stroke-width="10" stroke-opacity="0"></use></g></g><g><use xlink:href="#e4bkHVF1ks" opacity="1" fill="#394655" fill-opacity="1"></use><g><use xlink:href="#e4bkHVF1ks" opacity="1" fill-opacity="0" stroke="#000000" stroke-width="10" stroke-opacity="0"></use></g></g><g><use xlink:href="#a1g5zR8th2" opacity="1" fill="#e1d6b9" fill-opacity="1"></use><g><use xlink:href="#a1g5zR8th2" opacity="1" fill-opacity="0" stroke="#000000" stroke-width="10" stroke-opacity="0"></use></g></g><g><use xlink:href="#c6IiFefjn" opacity="1" fill="#394655" fill-opacity="1"></use><g><use xlink:href="#c6IiFefjn" opacity="1" fill-opacity="0" stroke="#000000" stroke-width="4.69" stroke-opacity="0"></use></g></g><g><use xlink:href="#d1U6gN1Fum" opacity="1" fill="#394655" fill-opacity="1"></use><g><use xlink:href="#d1U6gN1Fum" opacity="1" fill-opacity="0" stroke="#000000" stroke-width="10" stroke-opacity="0"></use></g></g><g><use xlink:href="#bmL2GPoh4" opacity="1" fill="#394655" fill-opacity="1"></use><g><use xlink:href="#bmL2GPoh4" opacity="1" fill-opacity="0" stroke="#000000" stroke-width="1.43" stroke-opacity="0"></use></g></g><g><use xlink:href="#a1Tmt4J4" opacity="1" fill="#96d6ff" fill-opacity="1"></use><g><use xlink:href="#a1Tmt4J4" opacity="1" fill-opacity="0" stroke="#000000" stroke-width="1.43" stroke-opacity="0"></use></g></g><g><use xlink:href="#anIYm3ujL" opacity="1" fill="#e1d6b9" fill-opacity="1"></use><g><use xlink:href="#anIYm3ujL" opacity="1" fill-opacity="0" stroke="#000000" stroke-width="10" stroke-opacity="0"></use></g></g><g><use xlink:href="#cRBpqa5ad" opacity="1" fill="#394655" fill-opacity="1"></use><g><use xlink:href="#cRBpqa5ad" opacity="1" fill-opacity="0" stroke="#000000" stroke-width="10" stroke-opacity="0"></use></g></g><g><use xlink:href="#b10JTVjsjI" opacity="1" fill="#96d6ff" fill-opacity="1"></use><g><use xlink:href="#b10JTVjsjI" opacity="1" fill-opacity="0" stroke="#000000" stroke-width="10" stroke-opacity="0"></use></g></g><g><use xlink:href="#a2jeFg6sZa" opacity="1" fill="#394655" fill-opacity="1"></use><g><use xlink:href="#a2jeFg6sZa" opacity="1" fill-opacity="0" stroke="#000000" stroke-width="10" stroke-opacity="0"></use></g></g><g><use xlink:href="#a1aYupdb7D" opacity="1" fill="#394655" fill-opacity="1"></use><g><use xlink:href="#a1aYupdb7D" opacity="1" fill-opacity="0" stroke="#000000" stroke-width="10" stroke-opacity="0"></use></g></g><g><use xlink:href="#c1Pn8uJh8D" opacity="1" fill="#394655" fill-opacity="1"></use><g><use xlink:href="#c1Pn8uJh8D" opacity="1" fill-opacity="0" stroke="#000000" stroke-width="10" stroke-opacity="0"></use></g></g><g><use xlink:href="#a1kQADJFsl" opacity="1" fill="#1e1e1e" fill-opacity="1"></use><g><use xlink:href="#a1kQADJFsl" opacity="1" fill-opacity="0" stroke="#000000" stroke-width="0.88" stroke-opacity="0"></use></g></g><g><use xlink:href="#bCoW7ksxb" opacity="1" fill="#c4cbd2" fill-opacity="1"></use><g><use xlink:href="#bCoW7ksxb" opacity="1" fill-opacity="0" stroke="#000000" stroke-width="4.69" stroke-opacity="0"></use></g></g><g><use xlink:href="#aESVAJzqs" opacity="1" fill="#c4cbd2" fill-opacity="1"></use><g><use xlink:href="#aESVAJzqs" opacity="1" fill-opacity="0" stroke="#000000" stroke-width="4.69" stroke-opacity="0"></use></g></g><g><use xlink:href="#c1MeRiiEVR" opacity="1" fill="#c4cbd2" fill-opacity="1"></use><g><use xlink:href="#c1MeRiiEVR" opacity="1" fill-opacity="0" stroke="#000000" stroke-width="4.69" stroke-opacity="0"></use></g></g><g><use xlink:href="#b3Smlzpny" opacity="1" fill="#c4cbd2" fill-opacity="1"></use><g><use xlink:href="#b3Smlzpny" opacity="1" fill-opacity="0" stroke="#000000" stroke-width="4.69" stroke-opacity="0"></use></g></g><g><use xlink:href="#a22BQoEMEN" opacity="1" fill="#394655" fill-opacity="1"></use><g><use xlink:href="#a22BQoEMEN" opacity="1" fill-opacity="0" stroke="#000000" stroke-width="2" stroke-opacity="0"></use></g></g><g><use xlink:href="#d15V7mgEMt" opacity="1" fill="#ffffff" fill-opacity="1"></use><g><use xlink:href="#d15V7mgEMt" opacity="1" fill-opacity="0" stroke="#000000" stroke-width="2" stroke-opacity="0"></use></g></g><g><use xlink:href="#alzqUz004" opacity="1" fill="#394455" fill-opacity="1"></use><g><use xlink:href="#alzqUz004" opacity="1" fill-opacity="0" stroke="#000000" stroke-width="2" stroke-opacity="0"></use></g></g><g><use xlink:href="#eaTMJ1hOM" opacity="1" fill="#394655" fill-opacity="1"></use><g><use xlink:href="#eaTMJ1hOM" opacity="1" fill-opacity="0" stroke="#000000" stroke-width="2" stroke-opacity="0"></use></g></g><g><use xlink:href="#b1ti5vmBwt" opacity="1" fill="#ffffff" fill-opacity="1"></use><g><use xlink:href="#b1ti5vmBwt" opacity="1" fill-opacity="0" stroke="#000000" stroke-width="2" stroke-opacity="0"></use></g></g><g><use xlink:href="#bgZDIrjlu" opacity="1" fill="#394455" fill-opacity="1"></use><g><use xlink:href="#bgZDIrjlu" opacity="1" fill-opacity="0" stroke="#000000" stroke-width="2" stroke-opacity="0"></use></g></g><g><use xlink:href="#fHmago0wE" opacity="1" fill="#1e1e1e" fill-opacity="0.09"></use><g><use xlink:href="#fHmago0wE" opacity="1" fill-opacity="0" stroke="#000000" stroke-width="11.14" stroke-opacity="0"></use></g></g><g><use xlink:href="#b4Ro7kC3P" opacity="1" fill="#2e3436" fill-opacity="1"></use><g><use xlink:href="#b4Ro7kC3P" opacity="1" fill-opacity="0" stroke="#000000" stroke-width="11.14" stroke-opacity="0"></use></g></g><g><use xlink:href="#a3ZdEGGmSH" opacity="1" fill="#ffffff" fill-opacity="1"></use><g><use xlink:href="#a3ZdEGGmSH" opacity="1" fill-opacity="0" stroke="#000000" stroke-width="11.14" stroke-opacity="0"></use></g></g><g><use xlink:href="#bCBIcHdRx" opacity="1" fill="#394655" fill-opacity="1"></use><g><use xlink:href="#bCBIcHdRx" opacity="1" fill-opacity="0" stroke="#000000" stroke-width="11.14" stroke-opacity="0"></use></g></g><g><use xlink:href="#cbOJDcxiU" opacity="1" fill="#e1d0cb" fill-opacity="1"></use><g><use xlink:href="#cbOJDcxiU" opacity="1" fill-opacity="0" stroke="#000000" stroke-width="11.14" stroke-opacity="0"></use></g></g><g><use xlink:href="#b16h8ONu4l" opacity="1" fill="#394655" fill-opacity="1"></use><g><use xlink:href="#b16h8ONu4l" opacity="1" fill-opacity="0" stroke="#000000" stroke-width="11.14" stroke-opacity="0"></use></g></g><g><use xlink:href="#bhXqEJFaG" opacity="1" fill="#e1d6b9" fill-opacity="1"></use><g><use xlink:href="#bhXqEJFaG" opacity="1" fill-opacity="0" stroke="#000000" stroke-width="10" stroke-opacity="0"></use></g></g><g><use xlink:href="#aJ1OrWK9V" opacity="1" fill="#394655" fill-opacity="1"></use><g><use xlink:href="#aJ1OrWK9V" opacity="1" fill-opacity="0" stroke="#000000" stroke-width="10" stroke-opacity="0"></use></g></g><g><use xlink:href="#a3TzVyMCJR" opacity="1" fill="#bd7d12" fill-opacity="1"></use><g><use xlink:href="#a3TzVyMCJR" opacity="1" fill-opacity="0" stroke="#394655" stroke-width="2.67" stroke-opacity="1"></use></g></g><g><use xlink:href="#a3IkGhQaQP" opacity="1" fill="#bd7d12" fill-opacity="1"></use><g><use xlink:href="#a3IkGhQaQP" opacity="1" fill-opacity="0" stroke="#394655" stroke-width="2.67" stroke-opacity="1"></use></g></g><g><use xlink:href="#a3julZH77N" opacity="1" fill="#bd7d12" fill-opacity="1"></use><g><use xlink:href="#a3julZH77N" opacity="1" fill-opacity="0" stroke="#394655" stroke-width="2.67" stroke-opacity="1"></use></g></g><g><use xlink:href="#c14QojcGV1" opacity="1" fill="#394655" fill-opacity="1"></use><g><use xlink:href="#c14QojcGV1" opacity="1" fill-opacity="0" stroke="#394655" stroke-width="2.33" stroke-opacity="1"></use></g></g><g><use xlink:href="#c18bbZpCzO" opacity="1" fill="#394655" fill-opacity="1"></use><g><use xlink:href="#c18bbZpCzO" opacity="1" fill-opacity="0" stroke="#394655" stroke-width="2.33" stroke-opacity="1"></use></g></g><g><use xlink:href="#f1yakGYcYD" opacity="1" fill="#dda03a" fill-opacity="1"></use><g><use xlink:href="#f1yakGYcYD" opacity="1" fill-opacity="0" stroke="#394655" stroke-width="5.33" stroke-opacity="1"></use></g></g><g><use xlink:href="#bkSPw4r5I" opacity="1" fill="#394655" fill-opacity="1"></use><g><use xlink:href="#bkSPw4r5I" opacity="1" fill-opacity="0" stroke="#394655" stroke-width="2.67" stroke-opacity="1"></use></g></g><g><use xlink:href="#c2MBhC49L" opacity="1" fill="#d4b86f" fill-opacity="1"></use><g><use xlink:href="#c2MBhC49L" opacity="1" fill-opacity="0" stroke="#394655" stroke-width="2.67" stroke-opacity="1"></use></g></g><g><use xlink:href="#b1IiowZgp1" opacity="1" fill="#d4b86f" fill-opacity="1"></use><g><use xlink:href="#b1IiowZgp1" opacity="1" fill-opacity="0" stroke="#394655" stroke-width="2.67" stroke-opacity="1"></use></g></g><g><use xlink:href="#arnCgQcBO" opacity="1" fill="#394655" fill-opacity="1"></use><g><use xlink:href="#arnCgQcBO" opacity="1" fill-opacity="0" stroke="#394655" stroke-width="2.67" stroke-opacity="1"></use></g></g></g></g></svg>